<svg xmlns="http://www.w3.org/2000/svg" viewBox="1537 865 107.226 69.008">
  <defs>
    <style>
      .cls-1 {
        fill: #808285;
      }

      .cls-2 {
        fill: #fff;
      }

      .cls-3 {
        fill: #f15a29;
      }
    </style>
  </defs>
  <g id="XMLID_1_" transform="translate(1537 865)">
    <rect id="XMLID_29_" class="cls-1" width="52.629" height="15.896" transform="translate(54.597 44.272)"/>
    <g id="Group_8" data-name="Group 8" transform="translate(18.533 22.136)">
      <path id="Path_16" data-name="Path 16" d="M49.9,92.67V74.286h2.563V75.4A3.376,3.376,0,0,1,55.1,74.1a2.691,2.691,0,0,1,1.226.26,2.038,2.038,0,0,1,.854.706,5.013,5.013,0,0,1,.557.966,5.217,5.217,0,0,1,.334,1.151c.074.409.111.78.149,1.114a8.078,8.078,0,0,1,.037.966v3.343c0,3.788-1.151,5.683-3.417,5.683a3.187,3.187,0,0,1-2.34-1.226v5.571H49.9Zm4.383-6.388a1.24,1.24,0,0,0,.557-.111.9.9,0,0,0,.371-.371,3.748,3.748,0,0,0,.26-.557,3.26,3.26,0,0,0,.149-.743,6.865,6.865,0,0,0,.037-.854V79.337a8.4,8.4,0,0,0-.037-1c-.037-.3-.074-.557-.111-.854a1.752,1.752,0,0,0-.26-.706,1.3,1.3,0,0,0-1.114-.631,2.711,2.711,0,0,0-1.746.706v8.877A3.609,3.609,0,0,0,54.283,86.282Z" transform="translate(-49.9 -68.715)"/>
      <path id="Path_17" data-name="Path 17" d="M79.1,64.574V61.9h2.563v2.674Zm0,15.859V66.617h2.563V80.433Z" transform="translate(-68.255 -61.046)"/>
      <path id="Path_18" data-name="Path 18" d="M90.5,88.354l3.083-7.28L90.537,74.5h2.451l2.006,4.383L96.777,74.5H99.3l-3.157,6.871,3.194,6.945H96.888l-2.117-4.643-1.857,4.68H90.5Z" transform="translate(-75.421 -68.966)"/>
      <path id="Path_19" data-name="Path 19" d="M121.785,88.388a5.135,5.135,0,0,1-2.006-.334,2.746,2.746,0,0,1-1.263-1.077,4.671,4.671,0,0,1-.631-1.708,14.507,14.507,0,0,1-.186-2.414V79.7a14.174,14.174,0,0,1,.186-2.414,4.671,4.671,0,0,1,.631-1.708,2.506,2.506,0,0,1,1.263-1.04,5.064,5.064,0,0,1,1.968-.334,4.635,4.635,0,0,1,1.3.149,6.289,6.289,0,0,1,1,.371,2.009,2.009,0,0,1,.706.669,5.041,5.041,0,0,1,.483.891,5.946,5.946,0,0,1,.3,1.114c.074.446.111.891.149,1.3.037.446.037.929.037,1.523v1.114h-5.46v2.86c0,.186.037.446.037.743a2.245,2.245,0,0,0,.149.669c.074.149.149.3.26.483a.691.691,0,0,0,.409.334,2.424,2.424,0,0,0,.631.111,1.123,1.123,0,0,0,1.114-.557,4.028,4.028,0,0,0,.3-1.708v-.854h2.488v.52C125.685,86.865,124.385,88.388,121.785,88.388Zm-1.523-8.468H123.2V78.657a6.878,6.878,0,0,0-.037-.929c-.037-.26-.074-.483-.111-.706a1.936,1.936,0,0,0-.223-.557.7.7,0,0,0-.409-.3,1.6,1.6,0,0,0-.631-.111,1.158,1.158,0,0,0-1.189.669,7.235,7.235,0,0,0-.3,2.488v.706Z" transform="translate(-92.518 -68.777)"/>
      <path id="Path_20" data-name="Path 20" d="M146.1,79.05V59.7h2.563V79.05Z" transform="translate(-110.37 -59.663)"/>
      <path id="Path_21" data-name="Path 21" d="M162.2,88.388a3.582,3.582,0,0,1-2.711-1.04,4.381,4.381,0,0,1-1.189-2.823l2.154-.631a4.76,4.76,0,0,0,.594,2.006,1.387,1.387,0,0,0,1.263.631,1.47,1.47,0,0,0,1.523-1.6A2.785,2.785,0,0,0,162.72,83L160.343,81a5.925,5.925,0,0,1-1.3-1.486,3.408,3.408,0,0,1-.409-1.894,3.494,3.494,0,0,1,1-2.526A3.588,3.588,0,0,1,162.2,74.2a3.02,3.02,0,0,1,2.451,1.04,4.32,4.32,0,0,1,1.04,2.6l-1.746.631a5.4,5.4,0,0,0-.52-1.783,1.24,1.24,0,0,0-1.151-.631,1.371,1.371,0,0,0-1,.409,1.344,1.344,0,0,0-.371,1,1.809,1.809,0,0,0,.706,1.411l2.451,2.228a6.007,6.007,0,0,1,1.448,1.671,4.112,4.112,0,0,1,.52,2.08,3.26,3.26,0,0,1-1.04,2.637A4.24,4.24,0,0,1,162.2,88.388Z" transform="translate(-118.039 -68.777)"/>
      <path id="Path_22" data-name="Path 22" d="M186.72,81.788a2.769,2.769,0,0,1-2.266-.817,3.9,3.9,0,0,1-.706-2.488V69.457H182.3V67.748h1.449V63.7h2.563v4.011h2.228V69.42h-2.228V78.3a1.814,1.814,0,0,0,.26,1.151,1.252,1.252,0,0,0,1,.334,6.261,6.261,0,0,0,.929-.074V81.6A13.174,13.174,0,0,1,186.72,81.788Z" transform="translate(-133.125 -62.177)"/>
      <path id="Path_23" data-name="Path 23" d="M204.3,88.1V74.286h2.563v1.968a5.569,5.569,0,0,1,1.448-1.671,2.866,2.866,0,0,1,1.6-.483,1.393,1.393,0,0,1,.409.037V76.96a3.792,3.792,0,0,0-1.411-.26,2.069,2.069,0,0,0-1.114.3,2.946,2.946,0,0,0-.966,1.04v10.1H204.3Z" transform="translate(-146.954 -68.715)"/>
      <path id="Path_24" data-name="Path 24" d="M225.3,64.574V61.9h2.563v2.674Zm0,15.859V66.617h2.563V80.433Z" transform="translate(-160.155 -61.046)"/>
      <path id="Path_25" data-name="Path 25" d="M239.6,78.95V59.6h2.563V71.151l3.751-5.98h2.674l-3.268,5.423,3.157,8.394h-2.563l-2.563-7.094-1.189,1.783V78.95Z" transform="translate(-169.144 -59.6)"/>
      <path id="Path_26" data-name="Path 26" d="M270.485,88.388a5.135,5.135,0,0,1-2.006-.334,2.746,2.746,0,0,1-1.263-1.077,4.671,4.671,0,0,1-.631-1.708,14.5,14.5,0,0,1-.186-2.414V79.7a14.174,14.174,0,0,1,.186-2.414,4.67,4.67,0,0,1,.631-1.708,2.505,2.505,0,0,1,1.263-1.04,5.064,5.064,0,0,1,1.968-.334,4.635,4.635,0,0,1,1.3.149,6.289,6.289,0,0,1,1,.371,2.009,2.009,0,0,1,.706.669,5.041,5.041,0,0,1,.483.891,5.945,5.945,0,0,1,.3,1.114c.074.446.111.891.149,1.3.037.446.037.929.037,1.523v1.114h-5.46v2.86c0,.186.037.446.037.743a1.483,1.483,0,0,0,.149.669c.074.149.149.3.26.483a.864.864,0,0,0,.409.334,2.424,2.424,0,0,0,.631.111,1.123,1.123,0,0,0,1.114-.557,4.028,4.028,0,0,0,.3-1.708v-.854h2.488v.52C274.385,86.865,273.085,88.388,270.485,88.388Zm-1.523-8.468H271.9V78.657a6.873,6.873,0,0,0-.037-.929c-.037-.26-.074-.483-.111-.706a1.936,1.936,0,0,0-.223-.557.7.7,0,0,0-.409-.3,1.6,1.6,0,0,0-.631-.111,1.158,1.158,0,0,0-1.189.669,7.236,7.236,0,0,0-.3,2.488v.706Z" transform="translate(-185.99 -68.777)"/>
    </g>
    <g id="Group_9" data-name="Group 9" transform="translate(59.388 49.137)">
      <path id="Path_27" data-name="Path 27" class="cls-2" d="M159.9,139.64a2.379,2.379,0,0,1,2.34-2.34,2.333,2.333,0,0,1,1.486.52.481.481,0,0,1,.111.669.486.486,0,0,1-.706.074,1.355,1.355,0,0,0-.891-.3,1.338,1.338,0,1,0,0,2.674,1.511,1.511,0,0,0,.891-.3.531.531,0,0,1,.706.111.485.485,0,0,1-.111.669,2.536,2.536,0,0,1-1.486.483A2.291,2.291,0,0,1,159.9,139.64Z" transform="translate(-159.9 -135.443)"/>
      <path id="Path_28" data-name="Path 28" class="cls-2" d="M180.523,137.783a.492.492,0,0,1-.483.483.912.912,0,0,0-.557.186,1.181,1.181,0,0,0-.409.446,2.335,2.335,0,0,0-.371.78v1.746a.5.5,0,0,1-.52.483.492.492,0,0,1-.483-.483v-3.64a.492.492,0,0,1,.483-.483.5.5,0,0,1,.52.483v.074a.448.448,0,0,1,.186-.186,2.23,2.23,0,0,1,1.151-.371A.492.492,0,0,1,180.523,137.783Z" transform="translate(-171.089 -135.443)"/>
      <path id="Path_29" data-name="Path 29" class="cls-2" d="M188.9,139.7a2.283,2.283,0,0,1,2.266-2.3,2.218,2.218,0,0,1,2.228,2.154v.111a.454.454,0,0,1-.483.371h-2.934a1.132,1.132,0,0,0,.3.594,1.43,1.43,0,0,0,.891.409,1.624,1.624,0,0,0,.966-.223.563.563,0,0,1,.706-.037.414.414,0,0,1,0,.594,2.366,2.366,0,0,1-1.671.594A2.251,2.251,0,0,1,188.9,139.7Zm1.04-.483h2.637a1.436,1.436,0,0,0-1.374-.966A1.279,1.279,0,0,0,189.94,139.22Z" transform="translate(-178.129 -135.506)"/>
      <path id="Path_30" data-name="Path 30" class="cls-2" d="M210.683,139.64v1.82a.492.492,0,0,1-.483.483.551.551,0,0,1-.483-.409,2.026,2.026,0,0,1-1.226.409,2.1,2.1,0,0,1-1.56-.669,2.367,2.367,0,0,1-.631-1.634,2.3,2.3,0,0,1,.631-1.634,2.056,2.056,0,0,1,1.56-.706,2.026,2.026,0,0,1,1.226.409.551.551,0,0,1,.483-.409.492.492,0,0,1,.483.483Zm-.966,0a1.485,1.485,0,0,0-.371-.966,1.128,1.128,0,0,0-.854-.371,1.076,1.076,0,0,0-.854.371,1.327,1.327,0,0,0-.334.966,1.455,1.455,0,0,0,.334.966,1.209,1.209,0,0,0,.854.371,1.076,1.076,0,0,0,.854-.371A1.485,1.485,0,0,0,209.717,139.64Z" transform="translate(-189.067 -135.443)"/>
      <path id="Path_31" data-name="Path 31" class="cls-2" d="M226.763,134.677a.508.508,0,0,1-.52.52h-.223v2.6a.52.52,0,1,1,0,1.04,1.038,1.038,0,0,1-1.04-1.04v-2.6h-.26a.52.52,0,0,1,0-1.04h.26V132.82a.52.52,0,0,1,1.04,0v1.337h.223A.508.508,0,0,1,226.763,134.677Z" transform="translate(-200.318 -132.3)"/>
      <path id="Path_32" data-name="Path 32" class="cls-2" d="M239.066,133.069a.5.5,0,0,1-.483.52.478.478,0,0,1-.483-.52v-.186a.492.492,0,0,1,.483-.483.468.468,0,0,1,.483.483Zm0,1.671v3.6a.483.483,0,1,1-.966,0v-3.6a.5.5,0,0,1,.483-.52A.478.478,0,0,1,239.066,134.74Z" transform="translate(-209.056 -132.363)"/>
      <path id="Path_33" data-name="Path 33" class="cls-2" d="M250.978,138.159l-1.523,3.6a.13.13,0,0,1-.037.074h0c-.037,0-.037.037-.074.074h0c0,.037-.037.037-.037.074h0a.13.13,0,0,1-.074.037h-.3c-.037,0-.037-.037-.074-.037h0l-.074-.074h0a.13.13,0,0,1-.037-.074h0a.13.13,0,0,1-.037-.074l-1.486-3.6a.464.464,0,0,1,.26-.631.475.475,0,0,1,.631.26l1.077,2.526,1.077-2.526a.464.464,0,0,1,.631-.26A.692.692,0,0,1,250.978,138.159Z" transform="translate(-214.766 -135.559)"/>
      <path id="Path_34" data-name="Path 34" class="cls-2" d="M263,139.7a2.283,2.283,0,0,1,2.266-2.3,2.218,2.218,0,0,1,2.228,2.154v.111a.454.454,0,0,1-.483.371h-2.934a.965.965,0,0,0,.334.594,1.43,1.43,0,0,0,.891.409,1.624,1.624,0,0,0,.966-.223.563.563,0,0,1,.706-.037.414.414,0,0,1,0,.594,2.366,2.366,0,0,1-1.671.594A2.215,2.215,0,0,1,263,139.7Zm1-.483h2.637a1.436,1.436,0,0,0-1.374-.966A1.279,1.279,0,0,0,264,139.22Z" transform="translate(-224.708 -135.506)"/>
    </g>
    <g id="XMLID_2_" transform="translate(0 0)">
      <g id="XMLID_15_" transform="translate(34.987 0)">
        <path id="XMLID_16_" class="cls-3" d="M94.2,12.405a3.566,3.566,0,1,1,7.131,0,3.45,3.45,0,0,1-1.04,2.526,3.391,3.391,0,0,1-2.526,1.04,3.45,3.45,0,0,1-2.526-1.04A3.391,3.391,0,0,1,94.2,12.405Zm0,8.84a3.566,3.566,0,1,1,7.131,0,3.45,3.45,0,0,1-1.04,2.526,3.391,3.391,0,0,1-2.526,1.04,3.45,3.45,0,0,1-2.526-1.04A3.391,3.391,0,0,1,94.2,21.245Zm0,26.556a3.566,3.566,0,1,1,7.131,0,3.45,3.45,0,0,1-1.04,2.526,3.391,3.391,0,0,1-2.526,1.04,3.45,3.45,0,0,1-2.526-1.04A3.391,3.391,0,0,1,94.2,47.8Zm8.84-44.235a3.391,3.391,0,0,1,1.04-2.526,3.587,3.587,0,0,1,5.051,0,3.391,3.391,0,0,1,1.04,2.526,3.45,3.45,0,0,1-1.04,2.526,3.391,3.391,0,0,1-2.526,1.04,3.45,3.45,0,0,1-2.526-1.04A3.45,3.45,0,0,1,103.04,3.566Zm0,8.84a3.566,3.566,0,1,1,7.131,0,3.45,3.45,0,0,1-1.04,2.526,3.391,3.391,0,0,1-2.526,1.04,3.45,3.45,0,0,1-2.526-1.04A3.391,3.391,0,0,1,103.04,12.405Zm0,8.84a3.566,3.566,0,1,1,7.131,0,3.45,3.45,0,0,1-1.04,2.526,3.391,3.391,0,0,1-2.526,1.04,3.45,3.45,0,0,1-2.526-1.04A3.391,3.391,0,0,1,103.04,21.245Zm0,26.556a3.566,3.566,0,1,1,7.131,0,3.45,3.45,0,0,1-1.04,2.526,3.391,3.391,0,0,1-2.526,1.04,3.45,3.45,0,0,1-2.526-1.04A3.391,3.391,0,0,1,103.04,47.8Zm8.84-44.235a3.391,3.391,0,0,1,1.04-2.526,3.587,3.587,0,0,1,5.051,0,3.391,3.391,0,0,1,1.04,2.526,3.45,3.45,0,0,1-1.04,2.526,3.391,3.391,0,0,1-2.526,1.04,3.45,3.45,0,0,1-2.526-1.04A3.6,3.6,0,0,1,111.879,3.566Zm8.877,0A3.391,3.391,0,0,1,121.8,1.04a3.587,3.587,0,0,1,5.051,0,3.391,3.391,0,0,1,1.04,2.526,3.45,3.45,0,0,1-1.04,2.526,3.391,3.391,0,0,1-2.526,1.04,3.45,3.45,0,0,1-2.526-1.04A3.45,3.45,0,0,1,120.756,3.566Zm8.84,0a3.391,3.391,0,0,1,1.04-2.526,3.587,3.587,0,0,1,5.051,0,3.391,3.391,0,0,1,1.04,2.526,3.45,3.45,0,0,1-1.04,2.526,3.391,3.391,0,0,1-2.526,1.04,3.45,3.45,0,0,1-2.526-1.04A3.45,3.45,0,0,1,129.6,3.566Zm0,8.84a3.566,3.566,0,1,1,7.131,0,3.45,3.45,0,0,1-1.04,2.526,3.391,3.391,0,0,1-2.526,1.04,3.45,3.45,0,0,1-2.526-1.04A3.391,3.391,0,0,1,129.6,12.405Zm8.84,0a3.566,3.566,0,1,1,7.131,0,3.45,3.45,0,0,1-1.04,2.526A3.391,3.391,0,0,1,142,15.971a3.45,3.45,0,0,1-2.526-1.04A3.537,3.537,0,0,1,138.435,12.405Z" transform="translate(-94.2 0)"/>
      </g>
      <g id="XMLID_3_" transform="translate(0 44.198)">
        <path id="XMLID_4_" class="cls-3" d="M7.131,131.405a3.391,3.391,0,0,1-1.04,2.526,3.391,3.391,0,0,1-2.526,1.04,3.391,3.391,0,0,1-2.526-1.04,3.587,3.587,0,0,1,0-5.051,3.391,3.391,0,0,1,2.526-1.04,3.45,3.45,0,0,1,2.526,1.04A3.537,3.537,0,0,1,7.131,131.405Zm8.84,0a3.551,3.551,0,0,1-3.566,3.566,3.551,3.551,0,0,1-3.566-3.566,3.45,3.45,0,0,1,1.04-2.526,3.391,3.391,0,0,1,2.526-1.04,3.45,3.45,0,0,1,2.526,1.04A3.391,3.391,0,0,1,15.971,131.405Zm0,8.84a3.551,3.551,0,0,1-3.566,3.566,3.551,3.551,0,0,1-3.566-3.566,3.45,3.45,0,0,1,1.04-2.526,3.391,3.391,0,0,1,2.526-1.04,3.551,3.551,0,0,1,3.566,3.566Zm8.84,0a3.551,3.551,0,0,1-3.566,3.566,3.551,3.551,0,0,1-3.566-3.566,3.45,3.45,0,0,1,1.04-2.526,3.391,3.391,0,0,1,2.526-1.04,3.551,3.551,0,0,1,3.566,3.566Zm8.877,0A3.572,3.572,0,0,1,27.6,142.77a3.391,3.391,0,0,1-1.04-2.526,3.45,3.45,0,0,1,1.04-2.526,3.391,3.391,0,0,1,2.526-1.04,3.45,3.45,0,0,1,2.526,1.04A3.6,3.6,0,0,1,33.687,140.245Zm8.84-17.679a3.566,3.566,0,1,1-7.131,0,3.45,3.45,0,0,1,1.04-2.526A3.391,3.391,0,0,1,38.961,119a3.45,3.45,0,0,1,2.526,1.04A3.537,3.537,0,0,1,42.526,122.566Zm0,8.84a3.566,3.566,0,1,1-7.131,0,3.45,3.45,0,0,1,1.04-2.526,3.391,3.391,0,0,1,2.526-1.04,3.45,3.45,0,0,1,2.526,1.04A3.537,3.537,0,0,1,42.526,131.405Zm0,8.84a3.566,3.566,0,1,1-7.131,0,3.45,3.45,0,0,1,1.04-2.526,3.391,3.391,0,0,1,2.526-1.04,3.45,3.45,0,0,1,2.526,1.04A3.6,3.6,0,0,1,42.526,140.245Zm8.84-17.679a3.566,3.566,0,1,1-7.131,0,3.45,3.45,0,0,1,1.04-2.526A3.391,3.391,0,0,1,47.8,119a3.45,3.45,0,0,1,2.526,1.04A3.391,3.391,0,0,1,51.366,122.566Zm0,8.84a3.566,3.566,0,1,1-7.131,0,3.45,3.45,0,0,1,1.04-2.526,3.391,3.391,0,0,1,2.526-1.04,3.45,3.45,0,0,1,2.526,1.04A3.391,3.391,0,0,1,51.366,131.405Z" transform="translate(0 -119)"/>
      </g>
    </g>
  </g>
</svg>
